Motion_pl08
version=1
nRows=9
nColumns=43
inDegrees=yes
endheader
time	pelvis_tilt	pelvis_list	pelvis_rotation	pelvis_tx	pelvis_ty	pelvis_tz	hip_flexion_r	hip_adduction_r	hip_rotation_r	knee_angle_r	ankle_angle_r	subtalar_angle_r	mtp_angle_r	hip_flexion_l	hip_adduction_l	hip_rotation_l	knee_angle_l	ankle_angle_l	subtalar_angle_l	mtp_angle_l	lumbar_extension	lumbar_bending	lumbar_rotation	neck_flexion	neck_lateral_bending	neck_rotation	arm_flex_r	arm_add_r	arm_rot_r	elbow_flex_r	pro_sup_r	wrist_flex_r	wrist_dev_r	hand_finger_flex_r	arm_flex_l	arm_add_l	arm_rot_l	elbow_flex_l	pro_sup_l	wrist_flex_l	wrist_dev_l	hand_finger_flex_l
      2.72750000	     -2.65684320	    -16.41028642	     93.21933307	     -0.00830848	      0.47290740	      0.46706674	    104.13487225	    -10.11049357	      7.16007311	   -125.36404486	     15.20166014	     14.08766791	     25.31896465	    101.36494633	    -12.40628770	      0.30844233	   -122.97745201	     14.91580744	     19.28546218	     34.58834125	    -50.64215677	     -3.23941234	     -4.92388068	     18.98414330	      9.46610286	     -3.73823024	    123.04888188	    -15.25304520	     27.54044245	     37.79776500	    121.06220835	     -1.63557827	    -15.40873103	    -42.93014616	    135.77211100	     -8.49178626	     50.58919389	     35.75597482	    123.27283143	    -14.76000718	     -4.36938156	    -19.02725006
      2.73000000	     -2.65367373	    -16.43407239	     93.21300469	     -0.00821481	      0.47326082	      0.46678952	    104.09126498	    -10.12920346	      7.15926808	   -125.36743021	     15.20114651	     14.09926538	     25.32304247	    101.34653379	    -12.41615197	      0.32205523	   -122.97195582	     14.91077723	     19.28493687	     34.58734641	    -50.59384475	     -3.24923831	     -4.94077195	     18.98605357	      9.46991402	     -3.73950558	    123.08380488	    -15.28183330	     27.53485532	     37.80250462	    121.06297359	     -1.63762530	    -15.40641758	    -42.93063413	    135.76317453	     -8.52042137	     50.59673368	     35.73221051	    123.27373099	    -14.75569020	     -4.36458135	    -19.02842405
      2.73250000	     -2.66838056	    -16.45416871	     93.19961469	     -0.00793350	      0.47374222	      0.46648552	    104.02346377	    -10.18572371	      7.12806729	   -125.29285295	     15.21395003	     14.15060591	     25.33868246	    101.31700741	    -12.43118016	      0.35189602	   -122.90335780	     14.88977989	     19.28748365	     34.58326115	    -50.53041745	     -3.26999503	     -4.95873871	     19.00332804	      9.48493925	     -3.74400713	    123.07736094	    -15.31199447	     27.57807822	     37.79926498	    121.07598992	     -1.62033941	    -15.39804808	    -42.92510666	    135.72073396	     -8.55670219	     50.65139892	     35.67262859	    123.28487570	    -14.73148515	     -4.35678118	    -19.02957229
      2.73500000	     -2.51387909	    -16.44705278	     93.27245047	     -0.00807851	      0.47432808	      0.46632553	    103.80405727	    -10.30923926	      7.00902907	   -125.19250142	     15.67366125	     14.94770597	     25.67315364	    101.29782082	    -12.35868661	      0.52289381	   -122.84862665	     14.64347311	     19.38394757	     34.53359586	    -50.53955878	     -3.19970709	     -4.89405011	     19.07211257	      9.78656331	     -3.76590559	    123.27670463	    -15.62393034	     28.22319919	     37.88905429	    121.24633155	     -1.42367848	    -15.22862208	    -42.87080483	    136.06205775	     -8.46986154	     51.41859870	     35.34007302	    123.50030643	    -14.52075913	     -4.35698469	    -19.13750542
      2.73750000	     -2.50862095	    -16.47144942	     93.26249130	     -0.00802585	      0.47468936	      0.46607948	    103.76095636	    -10.33398730	      7.01312939	   -125.19636149	     15.67007349	     14.95090948	     25.67658576	    101.26551265	    -12.37279550	      0.53900087	   -122.84253761	     14.64178486	     19.38250908	     34.53292729	    -50.48305441	     -3.20918937	     -4.91167749	     19.07896447	      9.78599414	     -3.76672670	    123.30654551	    -15.64622848	     28.21425227	     37.89212050	    121.24373895	     -1.42794703	    -15.22520659	    -42.87259309	    136.04861658	     -8.49484807	     51.42072225	     35.31848324	    123.49951533	    -14.51998184	     -4.35158411	    -19.13968759
      2.74000000	     -2.52576367	    -16.48718557	     93.24397364	     -0.00792930	      0.47510611	      0.46572133	    103.69552507	    -10.39079100	      6.97939120	   -125.12969232	     15.67670399	     14.96854300	     25.69059234	    101.20675003	    -12.38312012	      0.55279584	   -122.76670756	     14.64020733	     19.38422669	     34.53042910	    -50.41010131	     -3.23114133	     -4.92600133	     19.10977141	      9.78447878	     -3.76911313	    123.28793208	    -15.66021079	     28.24298580	     37.87873786	    121.24414480	     -1.41827030	    -15.21134395	    -42.87159146	    135.98326124	     -8.53009388	     51.45677475	     35.26069953	    123.50504543	    -14.50698644	     -4.34106834	    -19.14420656
      2.74250000	     -2.51158285	    -16.51358118	     93.23169046	     -0.00793664	      0.47544245	      0.46544663	    103.65491996	    -10.40438856	      6.97262607	   -125.13135941	     15.67861378	     14.97215696	     25.69432040	    101.16748035	    -12.38487803	      0.55402870	   -122.76502353	     14.63785496	     19.38509422	     34.52992694	    -50.35167154	     -3.23693052	     -4.94358661	     19.11345276	      9.78326956	     -3.76946257	    123.31572735	    -15.67898102	     28.24125759	     37.87856040	    121.24392160	     -1.41863123	    -15.20715964	    -42.87175310	    135.98042003	     -8.54266659	     51.46355371	     35.24529894	    123.50733289	    -14.50376591	     -4.33821048	    -19.14513059
      2.74500000	     -2.48522717	    -16.53159117	     93.26453316	     -0.00785291	      0.47615945	      0.46528364	    103.49359402	    -10.51931755	      6.83213200	   -124.97523615	     15.92154127	     15.04001036	     25.81755604	    101.05592518	    -12.40556293	      0.49920154	   -122.59339137	     14.71669764	     19.40578816	     34.52196131	    -50.33446211	     -3.22019116	     -4.97069444	     19.07711299	      9.79588409	     -3.76352410	    123.45133917	    -15.76166743	     28.50175703	     37.81095711	    121.28212637	     -1.31405917	    -15.10558993	    -42.84391240	    136.09480858	     -8.52716660	     51.72040108	     35.07294560	    123.61352670	    -14.41975344	     -4.32951462	    -19.17634147
      2.74750000	     -2.48346021	    -16.54713938	     93.25236103	     -0.00784775	      0.47640152	      0.46495904	    103.45550293	    -10.53076990	      6.83488833	   -124.98703567	     15.92241904	     15.04036075	     25.82096647	    101.01795094	    -12.39943865	      0.51386080	   -122.60379196	     14.71488406	     19.40444269	     34.52154974	    -50.27568929	     -3.22624221	     -4.97775717	     19.08425508	      9.79719871	     -3.76277900	    123.47677233	    -15.77979685	     28.49927242	     37.81103527	    121.28160496	     -1.31459257	    -15.10256070	    -42.84417521	    136.08610908	     -8.54845337	     51.72759492	     35.05361245	    123.61625345	    -14.41554018	     -4.32613077	    -19.17668606
